<svg width="44" height="44" viewBox="0 0 44 44" fill="none" xmlns="http://www.w3.org/2000/svg">
    <path
        d="M43.12 22.5C43.12 20.94 42.98 19.44 42.72 18H22V26.51H33.84C33.33 29.26 31.78 31.59 29.45 33.15V38.67H36.56C40.72 34.84 43.12 29.2 43.12 22.5Z"
        fill="#4285F4" />
    <path
        d="M22.0001 43.9999C27.9401 43.9999 32.9201 42.0299 36.5601 38.6699L29.4501 33.1499C27.4801 34.4699 24.9601 35.2499 22.0001 35.2499C16.2701 35.2499 11.4201 31.3799 9.69009 26.1799H2.34009V31.8799C5.96009 39.0699 13.4001 43.9999 22.0001 43.9999Z"
        fill="#34A853" />
    <path
        d="M9.69 26.1801C9.25 24.8601 9 23.4501 9 22.0001C9 20.5501 9.25 19.1401 9.69 17.8201V12.1201H2.34C0.8 15.1858 -0.00135725 18.5693 1.72557e-06 22.0001C1.72557e-06 25.5501 0.850002 28.9101 2.34 31.8801L9.69 26.1801Z"
        fill="#FBBC05" />
    <path
        d="M22.0001 8.75C25.2301 8.75 28.1301 9.86 30.4101 12.04L36.7201 5.73C32.9101 2.18 27.9301 0 22.0001 0C13.4001 0 5.96009 4.93 2.34009 12.12L9.69009 17.82C11.4201 12.62 16.2701 8.75 22.0001 8.75Z"
        fill="#EA4335" />
</svg>
